# xmcd
#
# Track frame offsets:
#	150
#	13517
#	31029
#	48269
#	61529
#	76824
#	95244
#	109419
#	123525
#	136885
#	154300
#	171508
#	184773
#	200041
#	218478
#	232653
#
# Disc length: 3287
#
# Revision: 1
# Processed by: cddbd v1.5.2PL0 Copyright (c) Steve Scherf et al.
# Submitted via: kJams Pro (development) 1.0patch50.56
#
DISCID=d00cd510
DTITLE=Various Artist - HPK1−02
DYEAR=2003
DGENRE=Country
TTITLE0=Wynette, Tammy - Stand By Your Man
TTITLE1=Nelson, Willie - Always On My Mind
TTITLE2=Rogers, Kenny - The Gambler
TTITLE3=Cline, Patsy - Crazy
TTITLE4=Anderson, Lynn - Rose Garden
TTITLE5=Campbell, Glen - Rhinestone Cowboy
TTITLE6=Rich, Charlie - Behind Closed Doors
TTITLE7=Nelson, Willie and Waylon Jennings - Mamas Don't Let Your Babies Grow Up To Be Cowboys
TTITLE8=Wynette, Tammy - Stand By Your Man (w⁄vox)
TTITLE9=Nelson, Willie - Always On My Mind (w⁄vox)
TTITLE10=Rogers, Kenny - The Gambler (w⁄vox)
TTITLE11=Cline, Patsy - Crazy (w⁄vox)
TTITLE12=Anderson, Lynn - Rose Garden (w⁄vox)
TTITLE13=Campbell, Glen - Rhinestone Cowboy (w⁄vox)
TTITLE14=Rich, Charlie - Behind Closed Doors (w⁄vox)
TTITLE15=Nelson, Willie and Waylon Jennings - Mamas Don't Let Your Babies Grow Up To Be Cowboys (w⁄vox)
EXTD=
EXTT0=
EXTT1=
EXTT2=
EXTT3=
EXTT4=
EXTT5=
EXTT6=
EXTT7=
EXTT8=
EXTT9=
EXTT10=
EXTT11=
EXTT12=
EXTT13=
EXTT14=
EXTT15=
PLAYORDER=
